# File created by Blade
# Date/Time:  Thu Sep 25 17:33:50 2014
# Frame Rate: 120.000 fps
#------------------------------------------------------
:FULLY-SPECIFIED
:DEGREES
1525
root -5.093797 32.745499 -1.268462 11.754970 3.270386 -1.898601
Spine -12.382808 8.432002 1.626910
Head -10.515818 -15.104860 6.465521
LeftShoulder -11.125321 28.608506 12.762214
LeftArm 38.502291 31.096924 -55.215953
LeftForeArm 36.230015 0.000000 103.628515
LeftHand -30.114476 -0.000000 29.397348
LeftHandThumb1 -26.253704 0.000000 33.147579
RightShoulder -17.489823 7.208888 -25.150453
RightArm -0.666572 -30.777850 80.014530
RightForeArm -29.469724 0.000000 115.178815
RightHand -1.039566 0.000000 -17.685796
RightHandThumb1 -24.326973 -0.000000 -32.862282
LeftUpLeg -7.275639 5.640536 1.404579
LeftLeg 2.543907 -0.000000 -0.000000
LeftFoot -15.891294 12.892159 -18.260137
LeftToeBase 4.746364 -0.000000 -0.000000
RightUpLeg -11.516690 -9.333172 5.638434
RightLeg 4.969952 -0.000000 -0.000000
RightFoot -10.632336 -3.765085 -3.267459
RightToeBase 0.101548 -0.000000 -0.000000
1526
root -5.071853 32.742253 -1.246450 11.753065 3.160208 -1.941604
Spine -12.475165 8.520129 1.576298
Head -10.516406 -15.154106 6.457202
LeftShoulder -11.490784 28.869801 12.566798
LeftArm 38.022644 30.580967 -55.106445
LeftForeArm 36.124448 -0.000000 103.014829
LeftHand -29.892810 -0.000000 29.219942
LeftHandThumb1 -26.253704 0.000000 33.147579
RightShoulder -17.601207 6.977390 -25.127951
RightArm -1.168145 -30.713824 79.710628
RightForeArm -29.417192 0.000000 114.215233
RightHand -1.019086 -0.000000 -16.899865
RightHandThumb1 -24.326973 -0.000000 -32.862282
LeftUpLeg -7.182483 5.737184 1.391252
LeftLeg 2.466398 -0.000000 -0.000000
LeftFoot -15.915037 12.927176 -18.198069
LeftToeBase 4.715775 -0.000000 -0.000000
RightUpLeg -11.542479 -9.271829 5.623525
RightLeg 5.108714 -0.000000 -0.000000
RightFoot -10.710024 -3.720691 -3.238859
RightToeBase 0.056543 -0.000000 -0.000000
1527
root -5.058976 32.739598 -1.218733 11.661818 3.122049 -1.970519
Spine -12.458365 8.542832 1.491038
Head -10.525862 -15.178412 6.530252
LeftShoulder -11.753688 29.148218 12.491818
LeftArm 37.489131 29.915291 -55.260460
LeftForeArm 36.286132 -0.000000 102.169704
LeftHand -29.783964 0.000000 29.839223
LeftHandThumb1 -26.253704 0.000000 33.147579
RightShoulder -17.705853 6.740348 -25.047394
RightArm -1.683998 -30.643419 79.469357
RightForeArm -29.566326 0.000000 113.174814
RightHand -1.064886 -0.000000 -16.222484
RightHandThumb1 -24.326973 -0.000000 -32.862282
LeftUpLeg -6.992454 5.743037 1.411991
LeftLeg 2.380413 -0.000000 -0.000000
LeftFoot -15.945217 12.947203 -18.174689
LeftToeBase 4.752053 -0.000000 -0.000000
RightUpLeg -11.426314 -9.243587 5.605692
RightLeg 5.163954 -0.000000 -0.000000
RightFoot -10.772333 -3.742929 -3.260795
RightToeBase 0.040522 -0.000000 -0.000000
1528
root -5.042911 32.737492 -1.193954 11.618825 3.106080 -2.000116
Spine -12.515130 8.579702 1.421602
Head -10.481490 -15.237817 6.551788
LeftShoulder -11.910714 29.354150 12.457923
LeftArm 36.841493 29.358420 -55.413919
LeftForeArm 36.262623 -0.000000 101.508596
LeftHand -29.901321 0.000000 28.511925
LeftHandThumb1 -26.253704 0.000000 33.147579
RightShoulder -17.817326 6.425595 -24.941458
RightArm -2.189948 -30.594272 79.224208
RightForeArm -29.710565 -0.000000 112.089527
RightHand -1.464033 0.000000 -15.412960
RightHandThumb1 -24.326973 -0.000000 -32.862282
LeftUpLeg -6.863566 5.686926 1.432247
LeftLeg 2.305181 -0.000000 -0.000000
LeftFoot -15.978407 12.982537 -18.205954
LeftToeBase 4.728337 -0.000000 -0.000000
RightUpLeg -11.368499 -9.250072 5.598909
RightLeg 5.225090 -0.000000 -0.000000
RightFoot -10.812062 -3.754388 -3.290700
RightToeBase 0.018647 -0.000000 -0.000000
1529
root -5.024786 32.735414 -1.169888 11.580087 3.067429 -2.014898
Spine -12.563793 8.596426 1.350028
Head -10.477898 -15.257500 6.541369
LeftShoulder -12.127080 29.550378 12.399377
LeftArm 36.240955 28.799443 -55.569549
LeftForeArm 36.317373 -0.000000 100.703899
LeftHand -29.698519 -0.000000 28.054293
LeftHandThumb1 -26.253704 0.000000 33.147579
RightShoulder -17.971812 6.148766 -24.898643
RightArm -2.625813 -30.699219 79.008029
RightForeArm -29.861158 -0.000000 110.834365
RightHand -1.670135 0.000000 -14.817543
RightHandThumb1 -24.326973 -0.000000 -32.862282
LeftUpLeg -6.727957 5.605235 1.429593
LeftLeg 2.215113 -0.000000 -0.000000
LeftFoot -16.010159 13.094444 -18.188887
LeftToeBase 4.730481 -0.000000 -0.000000
RightUpLeg -11.309115 -9.197786 5.562366
RightLeg 5.276671 -0.000000 -0.000000
RightFoot -10.862798 -3.794169 -3.308168
RightToeBase -0.009004 -0.000000 0.000000
1530
root -5.007329 32.733354 -1.150012 11.559150 3.038404 -2.016827
Spine -12.628995 8.452975 1.315233
Head -10.387074 -15.116303 6.464224
LeftShoulder -12.481704 29.805154 12.256760
LeftArm 35.716681 28.283201 -55.632866
LeftForeArm 36.215757 -0.000000 99.928096
LeftHand -29.953760 -0.000000 27.577009
LeftHandThumb1 -26.253704 0.000000 33.147579
RightShoulder -17.928579 5.982882 -24.845662
RightArm -3.124220 -30.758968 78.872392
RightForeArm -30.165340 -0.000000 109.511225
RightHand -1.530528 -0.000000 -14.130959
RightHandThumb1 -24.326973 -0.000000 -32.862282
LeftUpLeg -6.635006 5.515473 1.416653
LeftLeg 2.157797 -0.000000 -0.000000
LeftFoot -16.050463 13.173536 -18.210871
LeftToeBase 4.751025 -0.000000 -0.000000
RightUpLeg -11.269537 -9.088399 5.510268
RightLeg 5.318078 -0.000000 -0.000000
RightFoot -10.909065 -3.892735 -3.307654
RightToeBase -0.017241 -0.000000 0.000000
1531
root -4.987636 32.731640 -1.122435 11.518593 2.968632 -2.068083
Spine -12.690191 8.597395 1.282671
Head -10.330716 -15.195867 6.452618
LeftShoulder -12.638521 30.105281 12.177051
LeftArm 35.280468 27.675708 -55.698520
LeftForeArm 36.183411 -0.000000 99.105175
LeftHand -29.965765 -0.000000 26.540175
LeftHandThumb1 -26.253704 0.000000 33.147579
RightShoulder -18.145766 5.697650 -24.820269
RightArm -3.609039 -30.811180 78.714247
RightForeArm -30.543892 -0.000000 108.177544
RightHand -1.475738 -0.000000 -13.057988
RightHandThumb1 -24.326973 -0.000000 -32.862282
LeftUpLeg -6.478303 5.428206 1.447096
LeftLeg 2.043577 -0.000000 -0.000000
LeftFoot -16.104739 13.308442 -18.253422
LeftToeBase 4.711901 -0.000000 -0.000000
RightUpLeg -11.182769 -8.987383 5.494833
RightLeg 5.324483 -0.000000 -0.000000
RightFoot -10.920221 -3.912396 -3.264437
RightToeBase -0.065000 -0.000000 0.000000
1532
root -4.971683 32.730100 -1.101627 11.500947 2.958387 -2.080722
Spine -12.758890 8.586067 1.217939
Head -10.258904 -15.137199 6.438780
LeftShoulder -12.815927 30.318739 12.142970
LeftArm 34.742405 27.070657 -55.831624
LeftForeArm 36.037241 -0.000000 98.192164
LeftHand -29.746018 -0.000000 25.285996
LeftHandThumb1 -26.253704 0.000000 33.147579
RightShoulder -18.276725 5.458947 -24.752678
RightArm -4.069031 -30.812778 78.604809
RightForeArm -30.975794 0.000000 106.835605
RightHand -1.629879 -0.000000 -11.723972
RightHandThumb1 -24.326973 -0.000000 -32.862282
LeftUpLeg -6.393123 5.311832 1.452988
LeftLeg 1.991057 -0.000000 -0.000000
LeftFoot -16.130138 13.398432 -18.265557
LeftToeBase 4.649751 -0.000000 -0.000000
RightUpLeg -11.128615 -8.907048 5.456547
RightLeg 5.335381 -0.000000 -0.000000
RightFoot -10.937258 -3.977177 -3.252272
RightToeBase -0.121683 -0.000000 0.000000
1533
root -4.958543 32.729203 -1.084442 11.517018 2.973444 -2.102937
Spine -12.857796 8.529869 1.177125
Head -10.191950 -15.049930 6.408904
LeftShoulder -13.031052 30.529850 12.083826
LeftArm 34.266922 26.543110 -55.930193
LeftForeArm 35.898881 0.000000 97.225235
LeftHand -29.343120 -0.000000 24.054164
LeftHandThumb1 -26.253704 0.000000 33.147579
RightShoulder -18.413789 5.251665 -24.692149
RightArm -4.551116 -30.924658 78.567262
RightForeArm -31.056315 -0.000000 105.492591
RightHand -1.911703 -0.000000 -10.639398
RightHandThumb1 -24.326973 -0.000000 -32.862282
LeftUpLeg -6.383614 5.249634 1.466201
LeftLeg 2.005147 -0.000000 -0.000000
LeftFoot -16.184021 13.392466 -18.301385
LeftToeBase 4.714260 -0.000000 -0.000000
RightUpLeg -11.104529 -8.798974 5.437719
RightLeg 5.322513 -0.000000 -0.000000
RightFoot -10.947320 -4.072230 -3.207062
RightToeBase -0.079676 -0.000000 0.000000
1534
root -4.934169 32.728502 -1.061722 11.437097 2.981152 -2.090064
Spine -12.830743 8.482993 1.152017
Head -10.143401 -14.979706 6.337949
LeftShoulder -13.227205 30.704308 11.990460
LeftArm 33.796197 26.072691 -56.081974
LeftForeArm 35.764009 -0.000000 96.154575
LeftHand -29.466228 0.000000 23.674715
LeftHandThumb1 -26.253704 0.000000 33.147579
RightShoulder -18.485822 5.140888 -24.614825
RightArm -5.137771 -30.937572 78.531885
RightForeArm -30.863233 -0.000000 104.235829
RightHand -2.310405 -0.000000 -9.315119
RightHandThumb1 -24.326973 -0.000000 -32.862282
LeftUpLeg -6.249436 5.095095 1.439893
LeftLeg 1.988413 -0.000000 -0.000000
LeftFoot -16.220131 13.506483 -18.313740
LeftToeBase 4.637429 -0.000000 -0.000000
RightUpLeg -10.963295 -8.727463 5.346418
RightLeg 5.296431 -0.000000 -0.000000
RightFoot -10.965572 -4.144483 -3.181808
RightToeBase -0.104617 -0.000000 0.000000
